PathFileType	4	(X/Y/Z)	C:\Users\italobelli\Desktop\GitHub\PTbot_officialCBL\Personal_Results\FLX22_noisy1.trc
DataRate	CameraRate	NumFrames	NumMarkers	Units	OrigDataRate	OrigDataStartFrame	OrigNumFrames
106.125000	106.125000	25	9	m	106.125000	1	850
Frame#	Time		gu		centelbow		EpL		centpxt8		centijc7		ij		ts		aa		ai
			X1	Y1	Z1	X2	Y2	Z2	X3	Y3	Z3	X4	Y4	Z4	X5	Y5	Z5	X6	Y6	Z6	X7	Y7	Z7	X8	Y8	Z8	X9	Y9	Z9

1	0	-0.079287	-0.019084	0.16483	-0.13614	-0.25998	0.18425	-0.1203	-0.25747	0.21222	-0.046816	-0.15316	-0.008669	-0.046816	0.031938	-0.008669	0	0	0	-0.13512	0.029943	0.053246	-0.10617	0.018569	0.16839	-0.15465	-0.081877	0.052509
2	0.0094229	-0.079281	-0.019071	0.16482	-0.13625	-0.25993	0.18421	-0.12041	-0.25743	0.21218	-0.046816	-0.15316	-0.008669	-0.046816	0.031938	-0.008669	0	0	0	-0.1351	0.02995	0.053244	-0.10615	0.018575	0.16839	-0.15462	-0.081873	0.052502
3	0.018846	-0.079276	-0.019058	0.1648	-0.13635	-0.25987	0.18418	-0.12051	-0.25739	0.21215	-0.046816	-0.15316	-0.008669	-0.046816	0.031938	-0.008669	0	0	0	-0.13508	0.029956	0.053243	-0.10614	0.018581	0.16839	-0.15458	-0.081869	0.052495
4	0.028269	-0.07927	-0.019047	0.16479	-0.13645	-0.25982	0.18415	-0.12061	-0.25734	0.21212	-0.046816	-0.15316	-0.008669	-0.046816	0.031938	-0.008669	0	0	0	-0.13507	0.029963	0.053242	-0.10612	0.018586	0.16839	-0.15455	-0.081865	0.052489
5	0.037691	-0.079263	-0.019036	0.16478	-0.13654	-0.25977	0.18412	-0.12071	-0.2573	0.2121	-0.046816	-0.15316	-0.008669	-0.046816	0.031938	-0.008669	0	0	0	-0.13505	0.029969	0.053241	-0.10611	0.018591	0.16839	-0.15452	-0.081861	0.052484
6	0.047114	-0.079257	-0.019027	0.16476	-0.13664	-0.25972	0.1841	-0.1208	-0.25726	0.21208	-0.046816	-0.15316	-0.008669	-0.046816	0.031938	-0.008669	0	0	0	-0.13503	0.029974	0.05324	-0.10609	0.018596	0.16839	-0.15449	-0.081858	0.052479
7	0.056537	-0.07925	-0.019018	0.16475	-0.13672	-0.25967	0.18408	-0.12089	-0.25721	0.21206	-0.046816	-0.15316	-0.008669	-0.046816	0.031938	-0.008669	0	0	0	-0.13501	0.02998	0.053239	-0.10608	0.018601	0.16839	-0.15446	-0.081854	0.052474
8	0.06596	-0.079244	-0.01901	0.16474	-0.1368	-0.25962	0.18407	-0.12097	-0.25717	0.21205	-0.046816	-0.15316	-0.008669	-0.046816	0.031938	-0.008669	0	0	0	-0.135	0.029985	0.053239	-0.10606	0.018605	0.16839	-0.15443	-0.081851	0.052469
9	0.075383	-0.079237	-0.019002	0.16473	-0.13688	-0.25956	0.18406	-0.12105	-0.25713	0.21204	-0.046816	-0.15316	-0.008669	-0.046816	0.031938	-0.008669	0	0	0	-0.13498	0.029989	0.053238	-0.10605	0.018609	0.16839	-0.1544	-0.081847	0.052465
10	0.084806	-0.07923	-0.018996	0.16472	-0.13696	-0.25951	0.18405	-0.12113	-0.25708	0.21203	-0.046816	-0.15316	-0.008669	-0.046816	0.031938	-0.008669	0	0	0	-0.13496	0.029994	0.053238	-0.10603	0.018613	0.16839	-0.15437	-0.081844	0.052462
11	0.094229	-0.079222	-0.01899	0.16471	-0.13703	-0.25946	0.18405	-0.1212	-0.25704	0.21203	-0.046816	-0.15316	-0.008669	-0.046816	0.031938	-0.008669	0	0	0	-0.13495	0.029998	0.053238	-0.10602	0.018616	0.16839	-0.15434	-0.081841	0.052459
12	0.10365	-0.079215	-0.018985	0.1647	-0.1371	-0.25941	0.18405	-0.12127	-0.25699	0.21203	-0.046816	-0.15316	-0.008669	-0.046816	0.031938	-0.008669	0	0	0	-0.13493	0.030002	0.053238	-0.106	0.01862	0.16839	-0.15432	-0.081838	0.052456
13	0.11307	-0.079207	-0.018981	0.16469	-0.13716	-0.25936	0.18405	-0.12133	-0.25694	0.21203	-0.046816	-0.15316	-0.008669	-0.046816	0.031938	-0.008669	0	0	0	-0.13492	0.030006	0.053238	-0.10599	0.018623	0.16839	-0.15429	-0.081836	0.052453
14	0.1225	-0.0792	-0.018978	0.16468	-0.13723	-0.25931	0.18406	-0.12139	-0.2569	0.21204	-0.046816	-0.15316	-0.008669	-0.046816	0.031938	-0.008669	0	0	0	-0.1349	0.03001	0.053238	-0.10597	0.018625	0.16839	-0.15427	-0.081833	0.052451
15	0.13192	-0.079192	-0.018976	0.16467	-0.13728	-0.25926	0.18407	-0.12145	-0.25685	0.21205	-0.046816	-0.15316	-0.008669	-0.046816	0.031938	-0.008669	0	0	0	-0.13489	0.030013	0.053239	-0.10596	0.018628	0.16839	-0.15424	-0.08183	0.05245
16	0.14134	-0.079184	-0.018974	0.16466	-0.13734	-0.25921	0.18408	-0.12151	-0.2568	0.21207	-0.046816	-0.15316	-0.008669	-0.046816	0.031938	-0.008669	0	0	0	-0.13487	0.030016	0.053239	-0.10594	0.01863	0.16839	-0.15422	-0.081828	0.052448
17	0.15077	-0.079176	-0.018973	0.16465	-0.13739	-0.25917	0.1841	-0.12156	-0.25676	0.21208	-0.046816	-0.15316	-0.008669	-0.046816	0.031938	-0.008669	0	0	0	-0.13486	0.030019	0.05324	-0.10593	0.018632	0.16839	-0.15419	-0.081825	0.052447
18	0.16019	-0.079168	-0.018973	0.16464	-0.13744	-0.25912	0.18412	-0.12161	-0.25671	0.2121	-0.046816	-0.15316	-0.008669	-0.046816	0.031938	-0.008669	0	0	0	-0.13485	0.030022	0.053241	-0.10592	0.018634	0.16839	-0.15417	-0.081823	0.052446
19	0.16961	-0.079159	-0.018973	0.16463	-0.13749	-0.25907	0.18414	-0.12165	-0.25666	0.21212	-0.046816	-0.15316	-0.008669	-0.046816	0.031938	-0.008669	0	0	0	-0.13483	0.030024	0.053241	-0.1059	0.018636	0.16839	-0.15415	-0.081821	0.052446
20	0.17903	-0.079151	-0.018975	0.16463	-0.13753	-0.25902	0.18417	-0.1217	-0.25661	0.21215	-0.046816	-0.15316	-0.008669	-0.046816	0.031938	-0.008669	0	0	0	-0.13482	0.030027	0.053243	-0.10589	0.018637	0.16839	-0.15413	-0.081819	0.052445
21	0.18846	-0.079142	-0.018977	0.16462	-0.13757	-0.25897	0.18419	-0.12174	-0.25657	0.21218	-0.046816	-0.15316	-0.008669	-0.046816	0.031938	-0.008669	0	0	0	-0.13481	0.030029	0.053244	-0.10588	0.018638	0.16839	-0.15411	-0.081817	0.052445
22	0.19788	-0.079134	-0.018979	0.16461	-0.13761	-0.25892	0.18423	-0.12178	-0.25652	0.21221	-0.046816	-0.15316	-0.008669	-0.046816	0.031938	-0.008669	0	0	0	-0.1348	0.030031	0.053245	-0.10586	0.018639	0.16839	-0.15409	-0.081814	0.052446
23	0.2073	-0.079125	-0.018982	0.1646	-0.13765	-0.25888	0.18426	-0.12181	-0.25647	0.21224	-0.046816	-0.15316	-0.008669	-0.046816	0.031938	-0.008669	0	0	0	-0.13478	0.030033	0.053246	-0.10585	0.01864	0.16839	-0.15408	-0.081813	0.052446
24	0.21673	-0.079116	-0.018986	0.1646	-0.13768	-0.25883	0.18429	-0.12185	-0.25642	0.21227	-0.046816	-0.15316	-0.008669	-0.046816	0.031938	-0.008669	0	0	0	-0.13477	0.030034	0.053248	-0.10584	0.01864	0.16839	-0.15406	-0.081811	0.052447
25	0.22615	-0.079107	-0.018991	0.16459	-0.13772	-0.25878	0.18433	-0.12188	-0.25637	0.21231	-0.046816	-0.15316	-0.008669	-0.046816	0.031938	-0.008669	0	0	0	-0.13476	0.030036	0.053249	-0.10583	0.01864	0.16839	-0.15405	-0.081809	0.052448
